<?xml version="1.0" encoding="utf-8"?>
<!-- Generator: Adobe Illustrator 16.0.0, SVG Export Plug-In . SVG Version: 6.00 Build 0)  -->
<!DOCTYPE svg PUBLIC "-//W3C//DTD SVG 1.1//EN" "http://www.w3.org/Graphics/SVG/1.1/DTD/svg11.dtd">
<svg version="1.1" id="Layer_1" xmlns="http://www.w3.org/2000/svg" xmlns:xlink="http://www.w3.org/1999/xlink" x="0px" y="0px"
	 width="100px" height="100px" viewBox="0 0 100 100" enable-background="new 0 0 100 100" xml:space="preserve">
<path fill="#FFFFFF" d="M93.748,50.034c0-0.039,0.007-0.076,0.007-0.114h-0.012C93.659,27.442,75.352,9.18,52.852,9.18v17.683
	c12.791,0,23.194,10.391,23.217,23.17c-0.06,12.558-10.145,22.769-22.644,23.078c-11.699-0.287-21.277-9.273-22.483-20.742h9.335
	L22.015,34.114L3.755,52.369h9.494c1.254,21.027,18.419,37.801,39.603,38.392v0.06c0.192,0,0.381-0.025,0.573-0.029
	c0.193,0.004,0.38,0.029,0.573,0.029v-0.06c21.971-0.612,39.664-18.595,39.75-40.687h0.003
	C93.751,50.06,93.748,50.046,93.748,50.034z"/>
</svg>
